<svg width="18" height="17" viewBox="0 0 18 17" fill="none" xmlns="http://www.w3.org/2000/svg">
<path fill-rule="evenodd" clip-rule="evenodd" d="M8.46144 2.39232C8.5086 2.24278 8.6022 2.11218 8.72865 2.01947C8.85509 1.92676 9.0078 1.87677 9.16459 1.87677C9.32139 1.87677 9.4741 1.92676 9.60054 2.01947C9.72699 2.11218 9.82059 2.24278 9.86774 2.39232L11.1375 6.29718H15.2335C15.3959 6.29104 15.5559 6.33824 15.6889 6.43156C15.822 6.52488 15.9208 6.65919 15.9703 6.81398C16.0199 6.96876 16.0174 7.1355 15.9632 7.28873C15.9091 7.44196 15.8062 7.57324 15.6704 7.66252L12.3458 10.0723L13.6156 13.984C13.6658 14.133 13.6671 14.2942 13.6192 14.444C13.5713 14.5937 13.4768 14.7243 13.3495 14.8165C13.2222 14.9088 13.0687 14.9579 12.9115 14.9568C12.7542 14.9556 12.6015 14.9042 12.4755 14.8101L9.14411 12.3729L5.81951 14.7896C5.69357 14.8837 5.54082 14.9351 5.38359 14.9363C5.22636 14.9375 5.07287 14.8883 4.94554 14.7961C4.81821 14.7038 4.72371 14.5733 4.67584 14.4235C4.62797 14.2737 4.62924 14.1126 4.67946 13.9636L5.94922 10.0519L2.62462 7.64204C2.48883 7.55276 2.386 7.42148 2.33184 7.26825C2.27768 7.11502 2.27518 6.94828 2.32471 6.7935C2.37424 6.63871 2.47308 6.5044 2.60613 6.41108C2.73919 6.31776 2.89913 6.27056 3.06153 6.2767H7.15755L8.46144 2.39232Z" fill="#FBAD39"/>
</svg>
