<svg width="17" height="17" viewBox="0 0 17 17" fill="none" xmlns="http://www.w3.org/2000/svg">
<g clip-path="url(#clip0_127_1517)">
<path fill-rule="evenodd" clip-rule="evenodd" d="M7.55129 2.39232C7.59844 2.24278 7.69204 2.11218 7.81849 2.01947C7.94494 1.92676 8.09765 1.87677 8.25444 1.87677C8.41123 1.87677 8.56394 1.92676 8.69039 2.01947C8.81683 2.11218 8.91043 2.24278 8.95759 2.39232L10.2274 6.29718H14.3234C14.4858 6.29104 14.6457 6.33824 14.7788 6.43156C14.9118 6.52488 15.0107 6.65919 15.0602 6.81398C15.1097 6.96876 15.1072 7.1355 15.0531 7.28873C14.9989 7.44196 14.8961 7.57324 14.7603 7.66252L11.4357 10.0723L12.7054 13.984C12.7557 14.133 12.7569 14.2942 12.7091 14.444C12.6612 14.5937 12.5667 14.7243 12.4394 14.8165C12.312 14.9088 12.1585 14.9579 12.0013 14.9568C11.8441 14.9556 11.6913 14.9042 11.5654 14.8101L8.23396 12.3729L4.90936 14.7896C4.78341 14.8837 4.63067 14.9351 4.47343 14.9363C4.3162 14.9375 4.16271 14.8883 4.03539 14.7961C3.90806 14.7038 3.81356 14.5733 3.76569 14.4235C3.71782 14.2737 3.71908 14.1126 3.7693 13.9636L5.03907 10.0519L1.71447 7.64204C1.57867 7.55276 1.47584 7.42148 1.42168 7.26825C1.36753 7.11502 1.36502 6.94828 1.41455 6.7935C1.46408 6.63871 1.56293 6.5044 1.69598 6.41108C1.82903 6.31776 1.98897 6.27056 2.15137 6.2767H6.24739L7.55129 2.39232Z" stroke="#90A3BF" stroke-width="1.2288" stroke-linecap="round" stroke-linejoin="round"/>
</g>
<defs>
<clipPath id="clip0_127_1517">
<rect width="16.3841" height="16.3841" fill="white" transform="translate(0.0418701 0.214539)"/>
</clipPath>
</defs>
</svg>
