<svg width="18" height="17" viewBox="0 0 18 17" fill="none" xmlns="http://www.w3.org/2000/svg">
<path fill-rule="evenodd" clip-rule="evenodd" d="M8.50637 2.39232C8.55352 2.24278 8.64712 2.11218 8.77357 2.01947C8.90001 1.92676 9.05272 1.87677 9.20952 1.87677C9.36631 1.87677 9.51902 1.92676 9.64547 2.01947C9.77191 2.11218 9.86551 2.24278 9.91267 2.39232L11.1824 6.29718H15.2784C15.4408 6.29104 15.6008 6.33824 15.7338 6.43156C15.8669 6.52488 15.9657 6.65919 16.0153 6.81398C16.0648 6.96876 16.0623 7.1355 16.0081 7.28873C15.954 7.44196 15.8511 7.57324 15.7154 7.66252L12.3908 10.0723L13.6605 13.984C13.7107 14.133 13.712 14.2942 13.6641 14.444C13.6163 14.5937 13.5218 14.7243 13.3944 14.8165C13.2671 14.9088 13.1136 14.9579 12.9564 14.9568C12.7992 14.9556 12.6464 14.9042 12.5205 14.8101L9.18904 12.3729L5.86444 14.7896C5.73849 14.8837 5.58575 14.9351 5.42851 14.9363C5.27128 14.9375 5.11779 14.8883 4.99046 14.7961C4.86314 14.7038 4.76864 14.5733 4.72077 14.4235C4.6729 14.2737 4.67416 14.1126 4.72438 13.9636L5.99414 10.0519L2.66954 7.64204C2.53375 7.55276 2.43092 7.42148 2.37676 7.26825C2.3226 7.11502 2.3201 6.94828 2.36963 6.7935C2.41916 6.63871 2.518 6.5044 2.65106 6.41108C2.78411 6.31776 2.94405 6.27056 3.10645 6.2767H7.20247L8.50637 2.39232Z" fill="#FBAD39"/>
</svg>
