<svg width="17" height="17" viewBox="0 0 17 17" fill="none" xmlns="http://www.w3.org/2000/svg">
<path fill-rule="evenodd" clip-rule="evenodd" d="M7.52883 2.39232C7.57598 2.24278 7.66958 2.11218 7.79603 2.01947C7.92247 1.92676 8.07518 1.87677 8.23198 1.87677C8.38877 1.87677 8.54148 1.92676 8.66793 2.01947C8.79437 2.11218 8.88797 2.24278 8.93513 2.39232L10.2049 6.29718H14.3009C14.4633 6.29104 14.6233 6.33824 14.7563 6.43156C14.8894 6.52488 14.9882 6.65919 15.0377 6.81398C15.0873 6.96876 15.0848 7.1355 15.0306 7.28873C14.9764 7.44196 14.8736 7.57324 14.7378 7.66252L11.4132 10.0723L12.683 13.984C12.7332 14.133 12.7345 14.2942 12.6866 14.444C12.6387 14.5937 12.5442 14.7243 12.4169 14.8165C12.2896 14.9088 12.1361 14.9579 11.9788 14.9568C11.8216 14.9556 11.6689 14.9042 11.5429 14.8101L8.2115 12.3729L4.8869 14.7896C4.76095 14.8837 4.60821 14.9351 4.45097 14.9363C4.29374 14.9375 4.14025 14.8883 4.01292 14.7961C3.8856 14.7038 3.7911 14.5733 3.74323 14.4235C3.69536 14.2737 3.69662 14.1126 3.74684 13.9636L5.0166 10.0519L1.692 7.64204C1.55621 7.55276 1.45338 7.42148 1.39922 7.26825C1.34506 7.11502 1.34256 6.94828 1.39209 6.7935C1.44162 6.63871 1.54046 6.5044 1.67352 6.41108C1.80657 6.31776 1.96651 6.27056 2.12891 6.2767H6.22493L7.52883 2.39232Z" fill="#FBAD39"/>
</svg>
