<svg width="18" height="17" viewBox="0 0 18 17" fill="none" xmlns="http://www.w3.org/2000/svg">
<path fill-rule="evenodd" clip-rule="evenodd" d="M8.48391 2.39232C8.53106 2.24278 8.62466 2.11218 8.75111 2.01947C8.87755 1.92676 9.03026 1.87677 9.18705 1.87677C9.34385 1.87677 9.49656 1.92676 9.623 2.01947C9.74945 2.11218 9.84305 2.24278 9.8902 2.39232L11.16 6.29718H15.256C15.4184 6.29104 15.5783 6.33824 15.7114 6.43156C15.8444 6.52488 15.9433 6.65919 15.9928 6.81398C16.0423 6.96876 16.0398 7.1355 15.9857 7.28873C15.9315 7.44196 15.8287 7.57324 15.6929 7.66252L12.3683 10.0723L13.6381 13.984C13.6883 14.133 13.6895 14.2942 13.6417 14.444C13.5938 14.5937 13.4993 14.7243 13.372 14.8165C13.2446 14.9088 13.0912 14.9579 12.9339 14.9568C12.7767 14.9556 12.6239 14.9042 12.498 14.8101L9.16658 12.3729L5.84198 14.7896C5.71603 14.8837 5.56329 14.9351 5.40605 14.9363C5.24882 14.9375 5.09533 14.8883 4.968 14.7961C4.84067 14.7038 4.74618 14.5733 4.6983 14.4235C4.65043 14.2737 4.6517 14.1126 4.70192 13.9636L5.97168 10.0519L2.64708 7.64204C2.51129 7.55276 2.40846 7.42148 2.3543 7.26825C2.30014 7.11502 2.29764 6.94828 2.34717 6.7935C2.3967 6.63871 2.49554 6.5044 2.62859 6.41108C2.76165 6.31776 2.92159 6.27056 3.08399 6.2767H7.18001L8.48391 2.39232Z" fill="#FBAD39"/>
</svg>
